<?xml version="1.0" standalone="no"?>
<!DOCTYPE svg PUBLIC "-//W3C//DTD SVG 20010904//EN"
 "http://www.w3.org/TR/2001/REC-SVG-20010904/DTD/svg10.dtd">
<svg version="1.0" xmlns="http://www.w3.org/2000/svg"
 width="512.000000pt" height="512.000000pt" viewBox="0 0 512.000000 512.000000"
 preserveAspectRatio="xMidYMid meet">

<g transform="translate(0.000000,512.000000) scale(0.100000,-0.100000)"
fill="#000000" stroke="none">
<path d="M1535 4786 c-94 -41 -124 -168 -58 -247 45 -53 73 -59 268 -59 l175
0 0 -160 0 -160 -188 0 c-204 0 -261 -9 -354 -56 -71 -36 -159 -123 -197 -193
-63 -119 -61 -74 -61 -1188 0 -706 3 -1028 11 -1065 36 -172 165 -310 336
-361 49 -14 72 -25 69 -34 -46 -120 -256 -763 -256 -784 0 -134 163 -207 265
-118 28 25 41 52 75 154 l42 125 898 0 898 0 42 -125 c34 -102 47 -129 75
-154 102 -89 265 -16 265 118 0 21 -210 664 -256 784 -3 9 20 20 69 34 170 51
300 190 336 361 8 37 11 359 11 1065 0 1114 2 1069 -61 1188 -38 70 -126 157
-197 193 -93 47 -150 56 -354 56 l-188 0 0 159 0 160 189 3 c173 3 192 5 217
24 53 39 69 71 69 134 0 63 -16 95 -69 134 -27 21 -35 21 -1034 23 -822 2
-1013 0 -1037 -11z m1345 -466 l0 -160 -320 0 -320 0 0 160 0 160 320 0 320 0
0 -160z m-480 -960 l0 -480 -480 0 -480 0 0 414 c0 270 4 425 11 443 6 15 20
39 32 52 46 49 54 50 500 51 l417 0 0 -480z m1206 454 c15 -11 37 -33 48 -48
20 -27 21 -41 24 -457 l3 -429 -481 0 -480 0 0 480 0 481 429 -3 c416 -3 430
-4 457 -24z m74 -1413 l0 -159 -109 -4 c-118 -3 -141 -12 -185 -72 -29 -39
-29 -133 0 -172 44 -60 67 -69 186 -72 l110 -4 -4 -108 c-3 -117 -12 -140 -72
-184 -27 -21 -33 -21 -1046 -21 -1013 0 -1019 0 -1046 21 -60 44 -69 67 -72
184 l-4 108 110 4 c119 3 142 12 186 72 29 39 29 133 0 172 -44 60 -67 69
-185 72 l-109 4 0 159 0 159 1120 0 1120 0 0 -159z m-379 -1278 l56 -158 -790
-3 c-435 -1 -792 -1 -793 1 -2 2 20 74 49 160 l52 157 685 0 685 0 56 -157z"/>
<path d="M2175 2226 c-67 -29 -105 -106 -91 -181 9 -47 59 -102 104 -115 24
-7 160 -10 394 -8 342 3 358 4 384 24 53 39 69 71 69 134 0 63 -16 95 -69 134
-26 20 -41 21 -394 23 -290 2 -373 0 -397 -11z"/>
</g>
</svg>
